<svg width="800" height="400" version="1.1" viewBox="0 0 600 300" xmlns="http://www.w3.org/2000/svg" xmlns:xlink="http://www.w3.org/1999/xlink">
 <defs>
  <style type="text/css">*{stroke-linejoin: round; stroke-linecap: butt}</style>
 </defs>
 <g transform="matrix(.569 0 0 .569 -2.48e-5 .0409)">
  <path d="m0 527h1054v-527h-1054z" opacity="0"/>
  <path d="m0 527h1054v-527h-1054z" opacity="0"/>
  <defs>
   <path id="f" d="m0-37.5-8.42 25.9h-27.2l22 16-8.42 25.9 22-16 22 16-8.42-25.9 22-16h-27.2z"/>
  </defs>
  <g clip-path="url(#a)">
   <use x="231.83875" y="131.72656" width="100%" height="100%" fill="#1a786e" xlink:href="#f"/>
  </g>
  <defs>
   <path id="g" d="m0-37.5-8.42 25.9h-27.2l22 16-8.42 25.9 22-16 22 16-8.42-25.9 22-16h-27.2z"/>
  </defs>
  <g clip-path="url(#a)">
   <use x="147.53375" y="131.72656" width="100%" height="100%" fill="#20968a" xlink:href="#g"/>
  </g>
  <defs>
   <path id="h" d="m0-37.5-8.42 25.9h-27.2l22 16-8.42 25.9 22-16 22 16-8.42-25.9 22-16h-27.2z"/>
  </defs>
  <g clip-path="url(#a)">
   <use x="63.228748" y="131.72656" width="100%" height="100%" fill="#27b4a6" xlink:href="#h"/>
  </g>
  <g clip-path="url(#a)">
   <use x="821.97375" y="131.72656" width="100%" height="100%" fill="#1a786e" xlink:href="#f"/>
  </g>
  <g clip-path="url(#a)">
   <use x="906.27875" y="131.72656" width="100%" height="100%" fill="#20968a" xlink:href="#g"/>
  </g>
  <g clip-path="url(#a)">
   <use x="990.58374" y="131.72656" width="100%" height="100%" fill="#27b4a6" xlink:href="#h"/>
  </g>
  <path d="m0 263h1054" clip-path="url(#a)" fill="none" stroke="#20968a" stroke-linecap="square" stroke-width="6"/>
  <g transform="matrix(1.5 0 0 -1.5 279 166)" fill="#1a786e">
   <defs>
    <path id="af" transform="scale(.0156)" d="m3686 1120c-281-531-710-979-1369-979-979 0-1319 928-1319 1702 0 1402 820 2272 1824 2272 525 0 967-371 967-864v-51c51-26 109-32 147-32 26 0 51 13 51 32 19 179 58 717 71 947-320 77-666 160-1044 167h-51c-1318 0-2579-986-2579-2599 0-960 704-1766 1754-1766 556 0 908 51 1260 230 96 77 442 762 468 890 0 0-96 51-180 51z"/>
    <path id="o" transform="scale(.0156)" d="m1773 2816c-743 0-1626-954-1626-1914 0-601 256-940 717-940 410 0 896 556 979 697 0 39-57 128-77 128-19-19-371-441-665-441-327 0-448 300-448 697 0 32 6 186 13 205 403 0 1536 544 1536 1165 0 192-96 403-429 403zm-1095-1402c32 333 327 1140 775 1140 121 0 269-90 269-263 0-480-794-877-1044-877z"/>
    <path id="ac" transform="scale(.0156)" d="m1990 2816c-307 0-768-787-947-1222 45 211 71 332 109 544 26 140 51 294 51 345 0 192-109 333-249 333-308 0-743-486-813-608 0-38 38-122 57-122 20 20 314 378 455 378 64 0 64-109 64-166 0-32-26-167-32-205l-378-2093c77-13 154-19 237-19 70 0 147 6 218 19l147 787c121 672 665 1575 896 1575 51 0 109-20 134-52 51-57 135-96 192-96 147 0 231 122 231 288 0 64-32 148-58 180-58 64-173 134-314 134z"/>
    <path id="ab" transform="scale(.0156)" d="m755 2675h-192c-147 0-301-153-301-217 0-13 13-20 20-20h428l-345-1798c-26-141-45-288-45-339 0-192 77-339 218-339 307 0 780 486 851 608 0 38-51 115-71 115-19-19-307-365-448-365-64 0-70 102-70 160 0 32 19 141 32 205l339 1753h506c32 52 57 96 57 160 0 32-6 77-32 77h-486l147 768c-25 19-77 39-115 39-51 0-346-333-416-423z"/>
    <path id="n" transform="scale(.0156)" d="m717 2093-327-1453c-25-141-44-288-44-339 0-192 76-339 217-339 307 0 781 486 851 608 0 38-51 115-70 115-19-19-307-365-448-365-64 0-64 102-64 160 0 32 13 141 26 205l326 1453c26 140 45 294 45 345 0 192-109 333-250 333-307 0-749-486-819-608 0-38 45-122 64-122 19 20 314 378 454 378 64 0 64-109 64-166 0-32-19-167-25-205zm371 2093c-192 0-339-180-339-372 0-140 83-275 224-275 198 0 345 186 345 384 0 141-89 263-230 263z"/>
    <path id="ad" transform="scale(.0156)" d="m-608-986c-134 0-192-185-192-358 45-83 160-166 346-166 518 0 1139 729 1344 1792 153 819 377 2156 377 2156h672c32 52 58 96 58 160 0 32-7 77-32 77h-653c198 1031 339 1485 589 1485 205 0 237-250 429-250 121 0 185 160 198 308v57c-45 83-166 160-352 160-518 0-1133-697-1338-1760h-307c-147 0-301-153-301-217 0-13 7-20 13-20h551l-384-2188c-199-1031-333-1479-583-1479-205 0-237 243-435 243z"/>
    <path id="ae" transform="scale(.0156)" d="m1920 2208-83-422c-122-628-570-1440-903-1440-236 0-332 268-332 627 0 742 563 1587 1088 1587 153 0 236-154 236-294 0-20-6-39-6-58zm275 1414s-89-441-160-806h-70c-915 0-1843-1050-1843-2067 0-378 160-781 563-781 390 0 870 685 966 877-13-83-77-480-77-544 0-192 84-339 224-339 308 0 775 486 845 608 0 38-45 115-64 115-19-19-313-365-454-365-64 0-64 96-64 154 0 32 19 185 25 211l608 3142c32 160 84 435 84 487 0 38-7 102-39 121-141-51-499-179-857-211-26-26-45-109-26-134 102 0 397-7 397-128 0-71-32-231-58-340z"/>
   </defs>
   <use transform="translate(0 .703)" width="100%" height="100%" xlink:href="#af"/>
   <use transform="translate(65.1 .703)" width="100%" height="100%" xlink:href="#o"/>
   <use transform="translate(102 .703)" width="100%" height="100%" xlink:href="#ac"/>
   <use transform="translate(138 .703)" width="100%" height="100%" xlink:href="#ab"/>
   <use transform="translate(166 .703)" width="100%" height="100%" xlink:href="#n"/>
   <use transform="translate(192 .703)" width="100%" height="100%" xlink:href="#ad"/>
   <use transform="translate(222 .703)" width="100%" height="100%" xlink:href="#n"/>
   <use transform="translate(248 .703)" width="100%" height="100%" xlink:href="#o"/>
   <use transform="translate(285 .703)" width="100%" height="100%" xlink:href="#ae"/>
  </g>
  <g transform="matrix(.8 0 0 -.8 106 413)" fill="#1a786e">
   <defs>
    <path id="w" transform="scale(.0156)" d="m736 4109c-288 0-474 13-762 25-12-12-12-179 0-179 77 0 276-38 365-121 122-116 147-256 224-506 384-1229 634-2080 999-3238 6-26 38-103 64-103 83 0 204 96 236 211 333 1108 589 1824 941 2976 0 0 717-2176 1024-3084 7-26 32-103 58-103 83 0 211 96 243 211 333 1120 544 1940 890 3124 76 256 134 396 224 473 128 109 345 160 396 160 20 0 32 147 13 179-249-12-301-25-589-25-230 0-441 13-672 25-32-32-32-166 0-179 77 0 423-45 423-243 0-115-39-288-77-435-230-883-384-1383-653-2336-416 1241-953 2963-998 3097-32 71-45 96-71 96-70 0-185-83-224-204-185-615-652-2036-947-3e3 -262 890-582 1894-723 2413-64 217-96 365-96 409 0 173 326 205 378 205 25 7 25 141 12 179-249-12-403-25-678-25z"/>
    <path id="j" transform="scale(.0156)" d="m1926 2797c-288 0-620-410-748-679-7-6-32-12-32 13 0 71 44 538 51 583 0 12-39 38-77 38-250-102-582-166-902-198v-167c44 0 371 0 416-115 32-77 32-250 32-333v-1197c0-192 0-371-32-480-20-70-327-102-404-102v-179c256 13 468 32 717 32 243 0 525-19 787-32v179c-83 0-531 32-550 102-38 109-38 288-38 480v992c0 148 236 583 512 583 121 0 179-39 236-77 71-51 148-128 237-128 64 0 211 96 211 333 0 70-12 128-25 166-58 103-224 186-391 186z"/>
    <path id="c" transform="scale(.0156)" d="m544 3706c0-173 141-314 314-314 172 0 313 141 313 314 0 172-141 313-313 313-173 0-314-141-314-313zm602-1466c0 64 38 365 44 410 0 32-38 102-70 102-250-134-582-218-902-262v-167c44 0 371 0 416-109 32-76 32-243 32-326v-1165c0-185 0-358-32-461-20-70-327-102-404-102v-179c256 13 429 32 672 32 250 0 416-19 672-32v179c-76 0-377 32-396 102-32 103-32 276-32 461z"/>
    <path id="d" transform="scale(.0156)" d="m1011 2765v755c0 26-64 26-96-6-13-13-262-263-384-391v-358h-237c-6-7-166-173-166-199 0-19 13-57 32-57h371v-1856c0-551 339-698 666-698 307 0 557 243 646 346 7 6 26 64 26 102 0 19-7 32-19 39-45-32-224-148-410-148-288 0-429 186-429 525v1690h768c58 57 90 128 90 185 0 39 0 71-32 71z"/>
    <path id="b" transform="scale(.0156)" d="m730 1818c-13 0 134 761 672 761 390 0 518-422 518-608 0-121-70-153-147-153zm-32-231c76 0 1408 32 1600 45 121 6 153 122 153 301 0 256-192 870-953 870-557 0-1242-665-1242-1523 0-755 518-1331 1267-1331 493 0 807 358 922 537 25 32 45 84 45 116 0 57-52 89-58 89-83-102-339-339-691-339-551 0-1043 397-1043 1190z"/>
    <path id="e" transform="scale(.0156)" d="m2042 2803c-308 0-724-326-852-461-6-6-12-12-19-12-19 0-19 19-19 25 0 51 38 314 45 359 0 12-39 38-77 38-250-102-582-166-902-198v-167c44 0 371 0 416-115 32-77 32-275 32-358v-1172c0-192 0-371-32-480-20-70-327-102-404-102v-179c256 13 429 32 672 32 250 0 416-19 679-32v179c-77 0-378 32-397 102-38 109-38 288-38 480v1338c0 64 377 358 614 358 499 0 621-256 621-1056v-640c0-192 0-371-32-480-19-70-320-102-403-102v-179c262 13 422 32 672 32 249 0 422-19 684-32v179c-83 0-390 32-409 102-32 109-32 282-32 474v710c0 928-135 1357-819 1357z"/>
    <path id="v" transform="scale(.0156)" d="m1344-45c902 0 1562 685 1562 1504 0 570-397 1280-1159 1280-243 0-678-269-774-339-39-32-32 32-32 64v1229c0 345 64 544 64 544 0 45-32 102-64 102-269-121-583-217-903-249-25-7-12-167-6-167 179 0 346-19 390-109 32-76 32-243 32-326v-2803c0-128-12-333-76-461 0-32 51-134 83-134 38 12 83 19 128 19 96 0 192-32 288-58 134-38 365-96 467-96zm102 2413c570 0 935-435 935-1158 0-506-391-1044-851-1044-282 0-589 180-589 448v1517c0 32 6 51 25 71 58 57 314 166 480 166z"/>
    <path id="i" transform="scale(.0156)" d="m653 2720c-263 0-512 19-640 32v-179h25c90 0 263-7 320-128 384-819 653-1504 1012-2413-20-70-205-512-308-646-256-346-428-359-729-359-32-38-77-109-77-185 0-224 160-269 282-269 211 0 409 141 556 358 231 339 346 743 506 1133 371 902 582 1389 960 2285 83 179 358 224 410 224 25 0 38 141 12 179-134-13-294-32-537-32-263 0-480 19-576 32v-179c217 0 371-77 371-211 0-45-6-122-38-199-244-601-564-1446-564-1446l-678 1721c-13 13-13 20-13 26 0 96 269 109 320 109 32 0 39 141 26 179-115-13-397-32-640-32z"/>
    <path id="m" transform="scale(.0156)" d="m1184 288c-237 0-429 211-429 448 0 243 160 410 391 499 121 45 428 141 595 192v-877c0-64-333-262-557-262zm339 2502c-461 0-953-339-1145-518-26-32-45-134-45-160 0-134 77-269 211-269 154 0 256 90 294 307 45 250 128 404 352 404 314 0 551-327 551-615v-173c0-115-13-140-77-166-179-83-755-269-1107-397-141-51-320-256-320-518 0-416 326-736 736-736 224 0 710 345 787 422 38-192 205-409 384-409 134 0 397 166 474 236 19 32 32 84 32 122 0 19-7 51-26 51-19-13-96-83-211-83-147 0-199 134-199 301v1318c0 493-326 883-691 883z"/>
    <path id="y" transform="scale(.0156)" d="m1018 4109c-244 0-480 13-736 25-32-32-26-166 0-198 76 0 409-26 428-96 32-102 32-282 32-467v-2631c0-185 0-358-32-460-19-71-352-103-428-103-26-32-32-166 0-198 256 13 492 32 736 32 243 0 473-19 729-32 32 32 26 166 0 198-77 0-409 32-429 103-32 102-32 275-32 460v1242s0 6 7 13c25 13 115 32 985 32 320 0 666-19 960-26 0 0 13-6 13-19v-1242c0-185 0-358-32-460-19-71-352-103-429-103-25-32-32-166 0-198 256 13 493 32 736 32 244 0 474-19 730-32 32 32 26 166 0 198-77 0-410 32-429 103-32 102-32 275-32 460v2631c0 185 0 365 32 467 19 70 352 96 429 96 26 32 32 166 0 198-256-12-486-25-730-25-243 0-480 13-736 25-32-32-25-166 0-198 77 0 410-26 429-96 32-102 32-282 32-467v-1088c0-13-13-19-13-19-281-7-665-20-960-20-352 0-672 13-979 20 0 0-13 0-13 12v1095c0 185 0 365 32 467 20 70 352 96 429 96 26 32 32 166 0 198-256-12-486-25-729-25z"/>
    <path id="p" transform="scale(.0156)" d="m2227 2e3v-1344c0-147-307-346-589-346-441 0-640 301-640 967v921c0 179 20 378 45 429 0 32-38 128-70 128-224-70-538-115-864-128v-160c89 0 288-13 358-128 51-96 51-256 51-339v-794c0-525 116-1248 794-1248 326 0 730 231 902 416 0 0 13 0 13-32v-288c0-45 19-102 58-102 6 0 486 160 819 179 32 0 45 83 45 96 0 19-7 64-19 70-20 7-340-12-372 109-44 173-51 410-51 480v1312c0 179 26 352 51 403 0 32-38 154-76 154-224-70-544-115-864-128v-160c83 0 294-13 358-128 51-96 51-256 51-339z"/>
    <path id="k" transform="scale(.0156)" d="m2029 2803c-346 0-685-294-839-429-6-6-12-12-19-12-19 0-19 19-19 25 0 51 38 282 45 327 0 12-39 38-77 38-250-102-582-166-902-198v-167c44 0 371 0 416-115 32-77 32-275 32-358v-1172c0-192 0-371-32-480-20-70-327-102-404-102v-179c256 13 429 32 672 32 250 0 416-19 679-32v179c-77 0-378 32-397 102-38 109-38 288-38 480v1338c0 90 313 358 601 358 455 0 595-256 595-1043v-653c0-192 0-371-32-480-19-70-320-102-403-102v-179c263 13 423 32 672 32 243 0 423-19 679-32v179c-77 0-384 32-404 102-25 77-25 192-25 320v160 788c0 121-7 332-26 460 0 13-6 71-6 77 0 51 307 371 621 371 518 0 601-371 601-1e3v-692c0-192 0-371-32-480-19-70-320-102-397-102v-179c256 13 423 32 666 32 250 0 422-19 685-32v179c-77 0-391 32-410 102-32 109-32 282-32 474v710c0 928-134 1357-819 1357-307 0-646-269-928-518-102 377-346 518-723 518z"/>
    <path id="z" transform="scale(.0156)" d="m1286 2074h384c960 0 1159-506 1159-973 0-762-525-903-992-903-231 0-397 13-493 116-45 44-58 332-58 422zm0 236v1076c0 185 0 396 32 473 26 58 237 58 314 58 582 0 960-314 960-871 0-358-218-736-781-736zm621 1812c-371 0-646-13-889-13-244 0-480 13-736 25-32-32-26-147 0-179 76 0 409-25 428-96 32-102 32-281 32-467v-2650c0-185 0-358-32-460-19-71-352-103-428-103-26-32-32-147 0-179h1440c480 6 1011 90 1312 339 307 256 416 544 416 903 0 620-608 998-916 1011-19 13-12 19 0 25 218 84 628 429 628 909 0 711-685 935-1255 935z"/>
    <path id="s" transform="scale(.0156)" d="m1363 2554c397 0 595-410 595-800 0-346-192-711-544-711-396 0-614 397-614 781 0 358 192 730 563 730zm250-2580c601 0 838-300 838-480 0-345-525-672-960-672-544 0-845 301-845 704 0 160 231 333 372 416 51 26 480 32 595 32zm-224 2772c-608 0-1069-455-1069-948 0-307 211-633 518-800-115-70-428-294-537-422 0-314 294-512 512-582-211-109-666-378-666-653 0-506 563-762 1069-762 890 0 1664 666 1664 1184 0 352-480 653-979 653h-749c-250 0-378 160-378 224 0 102 116 211 231 275 64-25 249-57 358-57 615 0 1075 480 1075 915 0 288-140 537-172 569 0 13 6 20 25 20 0 0 256-20 410-26 64 38 141 205 141 256 0 26-13 51-58 64l-672-96c-154 32-365 186-723 186z"/>
   </defs>
   <use width="100%" height="100%" xlink:href="#w"/>
   <use x="87.799988" width="100%" height="100%" xlink:href="#j"/>
   <use x="125.79997" width="100%" height="100%" xlink:href="#c"/>
   <use x="152.29996" width="100%" height="100%" xlink:href="#d"/>
   <use x="182.99995" width="100%" height="100%" xlink:href="#d"/>
   <use x="213.69995" width="100%" height="100%" xlink:href="#b"/>
   <use x="255.99994" width="100%" height="100%" xlink:href="#e"/>
   <use x="308.59995" width="100%" height="100%" xlink:href="#Cochineal-Roman-20"/>
   <use x="329.69992" width="100%" height="100%" xlink:href="#v"/>
   <use x="378.89993" width="100%" height="100%" xlink:href="#i"/>
   <use x="425.7999" width="100%" height="100%" xlink:href="#Cochineal-Roman-20"/>
   <use x="446.8999" width="100%" height="100%" xlink:href="#m"/>
   <use x="489.2999" width="100%" height="100%" xlink:href="#Cochineal-Roman-20"/>
   <use x="510.39987" width="100%" height="100%" xlink:href="#y"/>
   <use x="581.19989" width="100%" height="100%" xlink:href="#p"/>
   <use x="632.09985" width="100%" height="100%" xlink:href="#k"/>
   <use x="710.39984" width="100%" height="100%" xlink:href="#m"/>
   <use x="752.79987" width="100%" height="100%" xlink:href="#e"/>
   <use x="805.39984" width="100%" height="100%" xlink:href="#Cochineal-Roman-20"/>
   <use x="826.49982" width="100%" height="100%" xlink:href="#z"/>
   <use x="884.69983" width="100%" height="100%" xlink:href="#b"/>
   <use x="926.99982" width="100%" height="100%" xlink:href="#c"/>
   <use x="953.49982" width="100%" height="100%" xlink:href="#e"/>
   <use x="1006.0998" width="100%" height="100%" xlink:href="#s"/>
  </g>
  <g transform="matrix(.15 0 0 -.15 948 524)" fill="#1a786e">
   <defs>
    <path id="aa" transform="scale(.0156)" d="m762 3962c0-64 19-128 51-186 147-262 307-346 429-550 44-71-7-122-52-141-32-7-64-7-96-7-166 0-307 45-492 45-199 0-384-64-384-230 0-135 108-192 236-192 32 0 64 6 96 13 301 64 423 192 653 243 32 6 64 6 83-19 26-26 20-84 20-84-45-236-199-390-256-684-7-26-7-52-7-71 0-128 77-230 205-230 166 0 224 205 224 403 0 179-38 307-38 454 0 71-7 160 38 180 32 12 90-20 90-20 211-115 307-307 569-448 51-32 103-44 154-44 89 0 211 70 211 192 0 96-90 179-205 230-275 128-448 90-665 192-32 13-58 26-64 58-7 32 32 89 32 89 172 167 390 205 608 403 70 64 102 128 102 199 0 96-83 198-186 198-76 0-160-45-230-121-198-224-224-410-384-583-26-25-45-45-77-38-32 6-64 70-64 70-109 218-64 423-192 698-51 102-134 173-224 173-115 0-185-90-185-192z"/>
    <path id="x" transform="scale(.0156)" d="m1018 4109c-244 0-480 13-736 25-32-32-26-147 0-179 76 0 409-25 428-96 32-102 32-281 32-467v-2669c0-185 0-358-32-461-19-70-352-102-428-102-26-32-32-147 0-179 256 13 492 32 736 32 243 0 473-19 729-32 32 32 26 147 0 179-77 0-409 32-429 102-32 103-32 276-32 461v2669c0 186 0 365 32 467 20 71 352 96 429 96 26 32 32 147 0 179-256-12-486-25-729-25z"/>
    <path id="u" transform="scale(.0156)" d="m2432 2470c0 71-38 154-64 180-154 102-352 153-576 153-666 0-1542-627-1542-1561 0-672 512-1293 1286-1293 493 0 813 358 928 537 19 32 38 84 38 116 0 51-44 83-51 83-83-96-326-320-678-320-576 0-1037 339-1037 1088 0 678 378 1075 723 1075 160 0 218-32 359-128 108-70 236-237 371-237 115 0 243 83 243 307z"/>
    <path id="l" transform="scale(.0156)" d="m1818 3866c83 0 256 25 256 243 0 64-32 147-58 173-102 64-115 76-301 76-390 0-1101-684-1101-1555v-38h-236c-7-7-167-173-167-199 0-19 13-57 32-57h371v-1773c0-186 0-365-32-474-19-70-326-102-403-102v-179c256 13 429 32 672 32 250 0 442-19 704-32v179c-77 0-409 32-429 102-32 109-32 288-32 474v1773h698c58 57 90 128 90 185 0 39 0 71-32 71h-756v659c-6 371 160 557 359 557 128 0 243-115 365-115z"/>
    <path id="t" transform="scale(.0156)" d="m1766 2803c-576 0-1516-646-1516-1485 0-780 537-1369 1120-1369 307 0 748 275 844 377 13 13 20-6 20-38v-218c0-44 12-121 51-121 6 0 493 160 825 179 32 0 45 77 45 90 0 19-6 70-19 76-19 7-320-6-378 109-38 90-44 371-44 615v2681c0 346 76 544 76 544 0 39-44 96-76 96-263-115-583-205-896-237-26-6-13-166-7-166 173 0 352-19 391-109 32-70 32-224 32-307v-659c0-71-7-122-32-122-64 26-301 64-436 64zm-211-262c359 0 679-173 679-314v-1632c0-102-269-256-557-256-583 0-903 525-903 1133 0 544 295 1069 781 1069z"/>
    <path id="q" transform="scale(.0156)" d="m1235 2797c-467 0-915-307-915-781 0-339 224-544 480-691 371-211 774-339 774-730 0-294-198-461-454-461-339 0-614 333-691 602-19 19-32 19-51 19-32 0-90-25-116-45 0-160 58-524 109-659 275-51 448-121 736-121 512 0 973 364 973 883 0 409-442 614-730 781-281 172-550 268-550 608 0 224 141 396 448 396 275 0 474-345 538-582 32-26 76-38 108-38s64 12 64 38c-6 224-32 499-76 698-282 32-404 83-647 83z"/>
    <path id="r" transform="scale(.0156)" d="m570 3488v-2765c0-185 0-358-32-461-20-70-320-102-397-102v-179c256 13 422 32 665 32 250 0 423-19 685-32v179c-83 0-390 32-409 102-32 103-32 276-32 461v2970c0 345 70 544 70 544 0 45-38 102-70 102-263-121-583-217-896-249-32-7-13-167-7-167 173 0 352-19 391-109 32-76 32-236 32-326z"/>
   </defs>
   <use width="100%" height="100%" xlink:href="#aa"/>
   <use x="43.199997" width="100%" height="100%" xlink:href="#x"/>
   <use x="74.799988" width="100%" height="100%" xlink:href="#Cochineal-Roman-20"/>
   <use x="95.899979" width="100%" height="100%" xlink:href="#u"/>
   <use x="137.79997" width="100%" height="100%" xlink:href="#b"/>
   <use x="180.09996" width="100%" height="100%" xlink:href="#j"/>
   <use x="218.09995" width="100%" height="100%" xlink:href="#d"/>
   <use x="248.79994" width="100%" height="100%" xlink:href="#c"/>
   <use x="275.29993" width="100%" height="100%" xlink:href="#l"/>
   <use x="305.7999" width="100%" height="100%" xlink:href="#c"/>
   <use x="332.2999" width="100%" height="100%" xlink:href="#b"/>
   <use x="374.59988" width="100%" height="100%" xlink:href="#t"/>
   <use x="425.39987" width="100%" height="100%" xlink:href="#Cochineal-Roman-20"/>
   <use x="446.49988" width="100%" height="100%" xlink:href="#k"/>
   <use x="524.79987" width="100%" height="100%" xlink:href="#i"/>
   <use x="571.69983" width="100%" height="100%" xlink:href="#q"/>
   <use x="607.89984" width="100%" height="100%" xlink:href="#b"/>
   <use x="650.19983" width="100%" height="100%" xlink:href="#r"/>
   <use x="675.39984" width="100%" height="100%" xlink:href="#l"/>
  </g>
 </g>
 <defs>
  <clipPath id="a">
   <rect width="1054" height="527"/>
  </clipPath>
 </defs>
</svg>
